<svg xmlns="http://www.w3.org/2000/svg" xmlns:xlink="http://www.w3.org/1999/xlink" version="1.1" x="0px" y="0px" viewBox="0 0 48 60" enable-background="new 0 0 48 48" xml:space="preserve"><g><path fill="#000000" d="M4.4,21.4c-0.1-0.1-0.3-0.1-0.3,0.1C4,22.3,4,23.1,4,24c0,11.1,9,20,20,20c0.9,0,1.8-0.1,2.6-0.2   c0.1,0,0.2-0.2,0.1-0.3c-3.9-2.8-8-6.2-12-10.3C11,29.7,7.4,25.5,4.4,21.4z"/><path fill="#000000" d="M43.1,31.2c-0.2-0.2-0.2-0.5-0.1-0.8c0.4-1.1,0.7-2.3,0.8-3.5c0,0,0,0,0,0c0,0,0,0,0-0.1   c0.1-0.4,0.1-0.8,0.2-1.3C44,25.1,44,24.6,44,24c0-11.1-9-20-20-20c-0.5,0-1.1,0-1.6,0.1c-0.5,0-0.9,0.1-1.4,0.2l0,0v0   c-1.2,0.2-2.4,0.5-3.5,0.9c-0.2,0.1-0.5,0-0.7-0.1C12.3,2.1,8.3,0.5,5.4,0.5c-1.5,0-2.7,0.4-3.6,1.3c-4.7,4.7,3.9,18.4,15,29.4   c9.7,9.7,20.1,16.3,25.8,16.3c1.5,0,2.7-0.4,3.6-1.3C48.9,43.4,47.2,37.7,43.1,31.2z M44.1,44.1c-0.3,0.3-0.8,0.4-1.5,0.4   c-4.1,0-13.5-5.3-23.6-15.4C6.7,16.8,1.9,6,3.9,3.9c0.3-0.3,0.8-0.4,1.5-0.4c1.8,0,4.6,1,8,3c0.2,0.1,0.2,0.4,0,0.5   c-0.8,0.5-1.6,1.1-2.3,1.7c0,0,0,0,0,0c-0.3,0.3-0.6,0.5-0.9,0.8c-0.1,0.1-0.1,0.1-0.2,0.2c0,0,0,0,0,0c-0.4,0.4-0.8,0.8-1.2,1.3   c-0.1,0.2-0.2,0.4-0.1,0.6C11,15.4,14.9,20.8,21,27c5.9,5.9,11.5,10,15.6,12.3c0.2,0.1,0.4,0.1,0.5-0.1c0.8-0.7,1.6-1.5,2.3-2.3   c0,0,0,0,0,0c0.6-0.8,1.2-1.6,1.7-2.4c0.1-0.1,0.3-0.1,0.3,0c0.3,0.6,1,1.7,1.1,2.1C44.8,40.9,44.8,43.3,44.1,44.1z"/></g><text x="0" y="63" fill="#000000" font-size="5px" font-weight="bold" font-family="'Helvetica Neue', Helvetica, Arial-Unicode, Arial, Sans-serif">Created by Creative Stall</text><text x="0" y="68" fill="#000000" font-size="5px" font-weight="bold" font-family="'Helvetica Neue', Helvetica, Arial-Unicode, Arial, Sans-serif">from the Noun Project</text></svg>